<svg width="316" height="446" viewBox="0 0 316 446" fill="none" xmlns="http://www.w3.org/2000/svg">
<path d="M91.2232 0.900085C91.6237 14.0511 87.8611 26.8814 88.6863 40.0685C88.5769 42.8483 88.3827 45.6459 88.3706 48.444C90.6161 49.7272 93.0194 46.7334 95.2648 46.0738C96.7456 48.2834 95.2406 51.5445 95.3496 54.1998C95.1554 63.4484 98.7238 71.7345 102.377 78.7378C98.3718 79.4148 94.306 78.346 90.3246 79.6109C88.1276 79.397 85.6274 77.7042 83.9036 80.5196C83.4547 80.3234 82.5685 79.9672 82.1192 79.771C81.9008 82.0162 81.7551 84.2614 81.6703 86.5249C81.3061 83.5845 80.9299 80.6263 80.4564 77.722C73.8169 74.6749 66.5344 74.7993 60.247 70.095C58.6814 68.9191 57.0549 67.9743 55.3311 67.4753C57.7101 65.6397 60.1982 64.1075 62.6988 62.6815C65.0778 60.9532 68.8283 60.3469 69.6781 56.1238C66.0976 53.8786 62.1162 53.4329 58.6451 50.742C63.3422 49.9223 67.6268 54.092 72.2634 53.7714C74.3874 53.7536 74.7515 50.3858 75.6134 48.2473C77.7862 40.5137 81.0147 33.4569 82.9445 25.5982C82.8108 24.9925 82.5319 23.7982 82.3861 23.2102C84.1591 15.2098 88.6988 8.61647 91.2232 0.900085V0.900085Z" fill="#703838" stroke="#703838" stroke-width="3.5065"/>
<path d="M93.224 36.5955C121.311 20.7536 151.691 15.4608 181.636 17.4392C209.128 19.7738 236.937 27.258 261.842 45.2917L262.352 46.9311C261.308 49.034 260.215 51.083 259.074 53.0792C257.12 52.2951 255.202 51.3153 253.345 50.121C240.953 42.3696 227.82 36.8628 214.494 33.9585C204.578 29.7171 194.09 29.4681 183.87 28.0243C170.555 26.3849 157.192 27.5609 143.939 29.3609C137.785 30.7864 131.45 30.9647 125.477 33.7623C115.233 36.7739 104.928 40.2133 95.2666 46.0758C93.0212 46.7349 90.6179 49.7287 88.3724 48.446C88.3846 45.6484 88.5787 42.8503 88.6881 40.0705C89.7442 37.8965 91.6864 37.6647 93.2278 36.5955H93.224Z" fill="#9C5050" stroke="#9C5050" stroke-width="3.5065"/>
<path d="M82.3862 23.2097C82.5319 23.7977 82.8109 24.9919 82.9445 25.5977C81.0148 33.4564 77.7859 40.5132 75.6135 48.2468C74.7516 50.3853 74.3875 53.7531 72.2635 53.7709C67.6269 54.0915 63.3423 49.9218 58.6451 50.7415C53.5838 48.9237 48.5588 46.518 43.3029 46.2867C42.0769 46.5363 41.3122 45.8055 41.0211 44.1127C51.763 43.7387 62.6749 44.6829 73.3196 43.5781C76.7907 37.2521 78.842 29.4112 82.3862 23.2097V23.2097Z" fill="#9C5050" stroke="#9C5050" stroke-width="3.5065"/>
<path d="M143.934 29.3588C157.189 27.5588 170.552 26.3829 183.866 28.0223C194.086 29.4655 204.573 29.7151 214.489 33.9564C215.169 38.1617 218.495 38.9637 220.194 42.0469C222.488 45.7358 225.595 49.0858 226.239 54.307C226.554 58.7796 226.749 63.395 226.044 67.8147C224.649 73.9806 220.267 76.9922 218.106 82.4451C224.212 82.659 230.244 79.1129 236.398 81.3758C229.662 84.0134 222.5 83.9062 215.582 85.1893C181.681 89.3946 147.512 89.0562 113.639 84.7792C111.466 84.6547 109.354 83.9773 107.254 83.2826C116.989 80.4494 126.699 86.2941 136.494 84.0489C130.353 77.4734 123.179 70.7374 121.019 59.3325C119.55 49.3176 125.109 41.9401 129.103 35.2223C128.204 34.8661 126.384 34.1353 125.473 33.7613C131.444 30.9627 137.78 30.7843 143.934 29.3588H143.934Z" fill="#804040" stroke="#804040" stroke-width="3.5065"/>
<path d="M95.2627 46.0733C104.924 40.2103 115.229 36.7713 125.474 33.7598C126.384 34.1338 128.205 34.8646 129.103 35.2208C125.11 41.9391 119.551 49.3165 121.019 59.331C123.18 70.7358 130.353 77.4719 136.495 84.0474C126.699 86.2926 116.989 80.4479 107.255 83.281C101.611 82.1051 95.8453 81.82 90.3225 79.6104C94.3035 78.345 98.3697 79.4142 102.375 78.7373C98.7217 71.7339 95.1533 63.4478 95.3475 54.1992C95.2385 51.5439 96.7435 48.2829 95.2627 46.0733V46.0733Z" fill="#773C3C" stroke="#773C3C" stroke-width="3.5065"/>
<path d="M214.492 33.958C227.82 36.8628 240.953 42.3691 253.344 50.1205C248.671 50.3878 244.337 53.1676 239.883 54.9499C241.109 55.734 242.335 56.4465 243.597 57.0883C242.359 57.5518 241.133 58.0686 239.919 58.621C247.105 65.5528 255.844 65.4105 264.085 66.5509C267.8 67.7268 271.672 68.636 275.41 67.0677C278.372 67.8696 282.899 66.8538 284.441 71.4336C283.906 71.5403 282.826 71.7365 282.28 71.8432C274.633 71.8965 266.938 70.4533 259.352 72.3956C255.771 73.4826 252.057 72.6985 248.501 73.9461C249.119 76.1735 251.05 76.5302 252.287 77.7773C247.08 79.6663 241.715 80.3793 236.399 81.3769C230.245 79.1139 224.213 82.6601 218.107 82.4461C220.268 76.9932 224.649 73.9817 226.045 67.8158C226.749 63.3965 226.555 58.7811 226.24 54.308C225.596 49.0869 222.489 45.7369 220.195 42.0479C218.496 38.9652 215.171 38.1633 214.491 33.958H214.492Z" fill="#783C3C" stroke="#783C3C" stroke-width="3.5065"/>
<path opacity="0.65" d="M19.0761 36.1127C36.0082 36.2194 52.9648 36.2911 69.9076 36.0771C70.2233 36.469 70.8785 37.2353 71.1942 37.6099C58.6316 38.5541 46.0204 37.7166 33.4471 38.0555C29.6235 38.2873 25.5819 36.9863 22.0011 39.5527C20.6051 39.9084 19.4642 37.9122 19.0758 36.1127H19.0761Z" fill="black" stroke="black" stroke-width="3.5065"/>
<path d="M43.3029 46.2918C48.5584 46.5235 53.5834 48.9293 58.6451 50.7466C62.1166 53.4375 66.0976 53.8827 69.6781 56.1284C68.8283 60.352 65.0778 60.9577 62.6988 62.6861C56.824 56.663 49.9662 52.9918 43.7033 47.8779L43.3029 46.2918V46.2918Z" fill="#522A2A" stroke="#522A2A" stroke-width="3.5065"/>
<path d="M239.886 54.9514C244.34 53.1692 248.673 50.3893 253.347 50.122C255.204 51.3158 257.121 52.2961 259.076 53.0802C258.275 54.6663 257.401 56.1629 256.721 57.874C256.988 58.6226 257.534 60.137 257.801 60.8856C253.092 59.4067 248.358 58.1235 243.6 57.0899C242.338 56.448 241.112 55.7355 239.886 54.9514V54.9514Z" fill="#522A2A" stroke="#522A2A" stroke-width="3.5065"/>
<path d="M239.92 58.6205C241.134 58.0681 242.36 57.5513 243.598 57.0878C248.356 58.1215 253.09 59.4047 257.8 60.8835C263.699 62.7191 269.646 64.4652 275.411 67.0672C271.673 68.6355 267.801 67.7263 264.087 66.5504C255.845 65.41 247.106 65.5528 239.92 58.6205Z" fill="#9C5050" stroke="#9C5050" stroke-width="3.5065"/>
<path d="M38.4949 79.4005C43.8356 74.7673 49.5888 70.9717 55.33 67.4789C57.0535 67.9779 58.68 68.9221 60.246 70.0986C66.5333 74.8029 73.8159 74.6784 80.4553 77.7255C80.9288 80.6303 81.3051 83.5885 81.6692 86.5284C82.446 92.9616 82.5311 99.5015 83.1864 105.952C73.3306 101.462 63.0501 98.4318 53.6796 92.0347C53.5339 85.3342 60.4523 82.127 61.3384 75.3909C56.8839 75.088 52.4172 79.0976 48.9699 83.1068C45.7778 82.0731 42.4278 82.2159 39.1868 81.4496C39.0169 80.9327 38.6648 79.9168 38.4949 79.4005V79.4005Z" fill="#9C5050" stroke="#9C5050" stroke-width="3.5065"/>
<path d="M248.501 73.9476C252.058 72.7 255.772 73.4841 259.352 72.3971C266.938 70.4548 274.634 71.8981 282.281 71.8447C279.95 78.2779 272.68 78.3847 271.078 85.6909C264.802 83.1607 258.806 78.8837 252.289 77.7789C251.05 76.5318 249.12 76.1755 248.501 73.9476Z" fill="#522A2A" stroke="#522A2A" stroke-width="3.5065"/>
<path d="M48.9692 83.1052C52.4165 79.0956 56.8832 75.0865 61.3377 75.3893C60.4516 82.1254 53.5332 85.3326 53.6789 92.0332C63.049 98.4303 73.3299 101.46 83.1857 105.951C83.562 108.089 83.9504 110.245 84.1082 112.455C81.4013 113.043 80.3092 107.786 77.6872 107.59C78.5976 120.652 80.9887 133.518 81.7291 146.544C78.5128 145.921 76.3763 141.573 73.4878 139.702C69.2395 137.011 66.0352 131.522 61.5807 129.527C62.7337 143.587 63.6562 157.646 64.9549 171.689C64.9065 173.025 64.8213 175.681 64.7729 177.017C62.236 173.435 61.4107 167.323 58.085 165.095C56.0095 172.919 57.0531 181.668 54.8686 189.455C52.2832 178.229 49.1032 167.341 46.7484 155.989C45.7532 152.301 45.3648 148.024 43.3984 145.083C43.6777 165.861 47.3673 186.479 47.7435 207.205C44.5514 207.65 41.8688 204.14 38.7129 204.425C38.3851 208.435 40.4728 211.856 40.57 215.865C38.3852 216.4 36.0912 216.542 33.9427 215.598C33.4207 213.959 32.9354 212.284 32.4983 210.609C32.3041 209.628 31.9399 207.668 31.7578 206.706C30.3985 175.236 30.4107 142.217 39.7687 113.118C42.6455 102.23 48.2043 93.6584 53.8122 85.6924C53.7879 85.14 53.7516 84.0352 53.7274 83.4828C52.125 83.7141 50.5349 83.5896 48.9692 83.1083V83.1052Z" fill="#663333" stroke="#663333" stroke-width="3.5065"/>
<path d="M252.288 77.7794C258.806 78.8842 264.802 83.1611 271.077 85.6914C279.574 88.9169 287.767 93.5679 296.118 97.5237C294.965 99.0742 293.642 99.6799 292.124 99.3415C286.419 98.2544 280.715 97.1318 274.974 96.6328C270.458 96.615 266.283 99.5376 261.998 101.213C262.01 101.712 262.023 102.709 262.035 103.208C269.536 105.65 276.952 108.75 284.502 110.835C288.81 112.047 293.119 113.491 297.307 115.433C293.775 117.999 289.757 116.555 285.995 116.698C280.484 116.057 274.925 116.467 269.439 115.718C265.87 112.154 262.52 108.002 259.437 103.565C257.944 101.693 256.051 103.921 254.473 104.313C245.297 107.877 235.975 110.621 226.605 112.76C226.07 111.014 225.27 109.98 224.213 109.642C223.874 110.55 223.194 112.35 222.854 113.241C213.593 116.128 204.041 116.021 194.731 118.462C192.413 116.199 190.604 112.51 187.837 111.441C187.339 113.758 186.975 116.11 186.611 118.462C182.545 118.783 178.466 119.104 174.4 118.587C172.325 112.67 169.849 107.093 167.858 101.141C166.778 98.4323 166.098 94.8506 163.865 93.7102C161.207 102.21 157.31 109.695 154.579 118.124C149.785 119.264 144.93 117.5 140.111 118.498C134.358 112.19 129.381 104.563 124.114 97.4703C122.475 95.439 121.249 92.1602 118.919 91.8568C118.458 99.466 119.113 107.2 118.13 114.738C116.115 115.967 114.015 114.346 112.364 112.724C102.836 102.068 93.4538 91.1265 83.9016 80.5236C85.6251 77.7082 88.1256 79.401 90.3226 79.6149C95.8454 81.8246 101.611 82.1097 107.255 83.2856C109.354 83.9808 111.467 84.6577 113.639 84.7822C147.516 89.0592 181.684 89.3977 215.582 85.1924C222.501 83.9092 229.662 84.0164 236.398 81.3789C241.715 80.3808 247.08 79.6678 252.287 77.7794H252.288Z" fill="#9C5050" stroke="#9C5050" stroke-width="3.5065"/>
<path d="M82.1196 79.7715C82.5685 79.9677 83.4547 80.3239 83.9039 80.5201C93.4562 91.123 102.839 102.064 112.367 112.721C114.018 114.342 116.117 115.964 118.132 114.734C119.115 107.196 118.46 99.4624 118.921 91.8533C121.252 92.1561 122.477 95.435 124.116 97.4668C129.384 104.559 134.36 112.186 140.113 118.494C143.111 122.219 145.333 129.15 149.375 129.988C151.414 126.335 153.186 122.361 154.582 118.12C157.313 109.691 161.209 102.207 163.867 93.7061C166.1 94.8465 166.78 98.4282 167.86 101.137C169.851 107.089 172.327 112.666 174.403 118.583C176.223 124.499 178.906 129.702 180.763 135.583C181.345 137.204 181.94 139.877 183.567 139.396C184.586 132.428 185.848 125.514 186.613 118.458C186.977 116.105 187.341 113.753 187.839 111.436C190.606 112.506 192.415 116.194 194.733 118.458C200.875 126.798 207.417 134.585 214.081 142.034C215.222 143.726 216.375 141.161 216.52 139.61C218.559 130.789 221.205 122.253 222.856 113.236C223.196 112.346 223.875 110.546 224.215 109.637C225.271 109.975 226.072 111.009 226.607 112.755C230.964 123.928 236.62 133.872 241.354 144.706C246.549 139.77 247.144 129.096 251.04 122.324C253.905 123.732 254.596 128.544 256.113 131.858C261.903 145.401 267.256 159.354 273.045 172.898C274.575 177.175 278.143 174.145 280.644 174.145C285.535 178.262 287.125 187.706 292.187 191.128L293.109 191.448L293.643 189.666C294.93 192.304 296.204 195.547 295.804 198.932C290.682 197.204 286.191 192.196 281.008 191.217L280.498 192.001C276.978 211.994 273.592 232.042 269.792 251.911L268.882 252.25C268.069 230.438 269.028 208.466 268.457 186.602C264.003 178.511 259.05 170.902 254.341 163.079C253.322 161.743 252.472 159.409 250.906 159.551C249.086 164.166 249.134 169.94 247.92 174.948C245.275 174.645 244.498 169.923 242.568 167.802C237.725 160.977 234.217 151.853 228.718 146.258C226.801 155.025 226.4 164.505 224.919 173.504L224.033 174.413C214.177 167.107 205.086 157.502 195.121 150.659C193.519 157.466 193.98 164.897 192.269 171.687C188.057 170.047 185.156 164.541 181.43 161.422C174.584 155.346 168.649 146.845 161.354 142.016C160.456 149.465 159.8 157.074 158.089 164.238C148.027 156.077 138.584 146.133 128.4 138.328C129.359 146.418 131.446 154.277 131.519 162.563C119.515 148.004 108.118 132.162 95.6414 118.512C96.5033 127.654 100.897 135.441 101.249 144.707C97.2434 141.375 93.7601 136.652 89.3904 134.301C90.9439 148.77 93.6507 162.955 95.5563 177.336C95.4469 178.067 95.2163 179.528 95.1073 180.258C88.1768 176.712 81.5737 171.847 74.728 167.945L73.757 168.354C74.8858 188.669 78.1147 208.877 78.5394 229.226C73.3323 223.862 71.7058 213.188 66.596 207.61C65.5641 235.338 63.1608 262.907 62.0199 290.634C61.6921 291.133 61.0611 292.13 60.7333 292.629C59.9929 284.218 58.148 276.11 56.6914 267.913C54.6644 258.914 54.2517 248.988 50.9139 240.702C46.7383 234.803 40.4267 235.392 35.0376 235.213C33.7631 233.698 33.9694 231.097 33.7025 229.012C33.2414 222.881 31.9427 216.823 32.501 210.604C32.9378 212.279 33.4235 213.954 33.9455 215.593C36.094 216.537 38.3879 216.395 40.5728 215.86C40.4755 211.851 38.3879 208.429 38.7157 204.42C41.8715 204.135 44.5538 207.645 47.7463 207.2C47.37 186.475 43.6801 165.857 43.4011 145.078C45.3676 148.019 45.756 152.296 46.7511 155.984C49.1059 167.336 52.286 178.224 54.8713 189.45C57.0562 181.662 56.0122 172.913 58.0877 165.09C61.4135 167.318 62.2387 173.43 64.7756 177.012C64.8241 175.675 64.9092 173.02 64.9577 171.684C63.6589 157.641 62.7365 143.582 61.5835 129.521C66.038 131.517 69.2423 137.006 73.4905 139.697C76.3794 141.568 78.5155 145.916 81.7319 146.539C80.9915 133.513 78.6003 120.647 77.6899 107.585C80.3117 107.781 81.4041 113.038 84.111 112.45C83.9531 110.24 83.5647 108.084 83.1885 105.945C82.5329 99.4944 82.4481 92.9545 81.6713 86.5218C81.7565 84.2598 81.9022 82.0147 82.1206 79.7695L82.1196 79.7715Z" fill="#522A2A" stroke="#522A2A" stroke-width="3.5065"/>
<path d="M262.001 101.212C266.286 99.5371 270.461 96.6145 274.976 96.6323C280.717 97.1313 286.422 98.2539 292.127 99.3409C293.644 99.6794 294.967 99.0736 296.12 97.5231C298.45 97.7549 300.903 98.4496 302.674 100.891L302.456 101.657C296.217 103.92 289.869 105.542 283.643 107.823C283.861 108.572 284.286 110.086 284.505 110.835C276.955 108.75 269.539 105.649 262.038 103.208C262.025 102.709 262.013 101.711 262.001 101.212V101.212Z" fill="#5B2E2E" stroke="#5B2E2E" stroke-width="3.5065"/>
<path d="M254.472 104.312C256.05 103.92 257.944 101.692 259.437 103.564C262.52 108.001 265.87 112.152 269.438 115.717C274.925 116.466 280.484 116.055 285.994 116.697C289.757 116.554 293.774 117.998 297.306 115.432C298.739 115.343 302.283 115.182 301.725 118.479C292.002 121.277 282.608 126.017 272.982 129.474C273.14 130.311 273.468 132.004 273.626 132.859C272.145 132.753 270.664 132.735 269.195 132.788C270.336 135.532 271.368 138.526 273.006 140.754C276.198 143.427 280.046 142.197 283.53 143.124C288.069 144.585 292.755 144.585 297.306 145.921C299.685 146.58 302.173 146.741 304.504 145.618C305.803 145.405 307.053 145.85 308.23 146.973C306.628 150.911 302.938 148.006 300.438 148.773C292.196 151.268 283.7 149.486 275.373 150.858L274.973 152.069C276.017 153.281 277.133 154.386 278.226 155.544C277.643 156.934 277.692 158.271 278.396 159.554C282.935 170.139 288.021 180.261 292.184 191.131C287.123 187.709 285.533 178.265 280.641 174.149C278.141 174.149 274.572 177.178 273.043 172.901C267.253 159.358 261.901 145.405 256.111 131.862C254.594 128.547 253.902 123.736 251.038 122.328C247.141 129.1 246.547 139.774 241.352 144.71C236.618 133.875 230.962 123.932 226.604 112.759C235.974 110.62 245.296 107.876 254.472 104.312V104.312Z" fill="#673333" stroke="#673333" stroke-width="3.5065"/>
<path opacity="0.41" d="M303.255 110.583C301.98 107.625 305.136 107.696 306.313 107.375C307.697 110.173 309.76 112.062 312.163 112.205C314.324 111.741 314.106 117.194 312.054 116.5C311.92 115.698 311.641 114.094 311.508 113.292C308.729 112.526 305.986 111.581 303.255 110.583Z" fill="black" stroke="black" stroke-width="3.5065"/>
<path d="M194.731 118.46C204.041 116.019 213.593 116.126 222.854 113.239C221.203 122.256 218.557 130.791 216.518 139.613C216.372 141.163 215.219 143.729 214.079 142.036C207.415 134.587 200.873 126.8 194.731 118.46Z" fill="#6E3737" stroke="#6E3737" stroke-width="3.5065"/>
<path d="M140.113 118.496C144.931 117.498 149.787 119.262 154.581 118.122C153.185 122.363 151.413 126.337 149.374 129.99C145.332 129.152 143.111 122.22 140.113 118.496V118.496Z" fill="#6F3838" stroke="#6F3838" stroke-width="3.5065"/>
<path d="M174.402 118.587C178.468 119.104 182.546 118.783 186.613 118.463C185.848 125.519 184.586 132.433 183.566 139.401C181.94 139.883 181.345 137.209 180.762 135.588C178.905 129.707 176.222 124.504 174.402 118.587V118.587Z" fill="#703838" stroke="#703838" stroke-width="3.5065"/>
<path d="M272.984 129.473C282.609 126.015 292.004 121.276 301.726 118.478C297.49 125.927 291.082 130.257 286.918 137.973C282.354 136.993 278.07 134.498 273.627 132.859C273.469 132.003 273.142 130.31 272.984 129.473Z" fill="#522A2A" stroke="#522A2A" stroke-width="3.5065"/>
<path d="M269.197 132.786C270.666 132.733 272.147 132.751 273.628 132.857C278.07 134.497 282.355 136.991 286.919 137.972C292.818 140.289 298.729 142.694 304.506 145.616C302.176 146.739 299.688 146.578 297.309 145.919C292.757 144.583 288.072 144.583 283.532 143.122C280.049 142.195 276.201 143.425 273.009 140.751C271.37 138.524 270.339 135.531 269.197 132.786V132.786Z" fill="#9C5050" stroke="#9C5050" stroke-width="3.5065"/>
<path d="M106.502 141.679L107.582 142.107C118.13 154.653 128.241 168.356 138.946 180.634C138.861 171.1 136.07 162.03 135.742 152.532C143.741 160.248 152.104 167.144 160.212 174.646C160.588 174.753 161.353 174.985 161.729 175.092C163.088 168.231 163.44 160.961 164.86 154.154C166.693 154.082 167.944 156.328 169.363 157.646C176.913 165.523 184.56 173.221 192.11 181.115C193.518 182.22 194.841 185.178 196.613 183.45C196.346 178.959 197.535 174.682 197.705 170.245C198.203 167.448 197.559 163.794 199.101 161.638C207.804 168.909 216.531 176.536 225.246 183.949C225.574 184.412 226.254 185.321 226.581 185.784C227.309 187.691 228.365 188.208 229.749 187.388C230.028 185.268 230.307 183.147 230.562 181.045C237.359 192.877 240.66 210.162 237.444 225.345C236.692 230.531 241.304 234.879 238.998 239.833C236.436 229.034 231.047 219.358 223.692 215.134C221.264 213.691 217.89 214.065 216.409 217.611C214.552 222.69 214.115 228.57 214.248 234.273C214.297 240.777 213.727 248.297 217.052 253.447C220.366 250.328 223.182 246.229 226.374 242.897C230.1 240.064 234.458 240.794 238.487 241.258C236.91 245.124 233.232 242.06 230.998 244.358C227.357 249.116 224.481 255.139 220.39 259.184C211.032 268.789 199.878 273.512 188.808 276.719C185.434 277.004 181.962 276.238 178.722 278.038C175.238 280.212 171.779 276.986 168.271 277.022C166.074 276.719 163.683 277.413 161.717 275.65C160.734 272.442 160.503 268.486 158.367 266.348C153.269 248.831 143.098 233.737 130.231 229.247C117.693 223.491 103.626 228.462 93.4292 240.259C90.7102 243.342 88.4648 247.227 85.9525 250.63C84.8358 238.798 83.5976 226.876 82.9424 215.026C84.4959 212.299 85.3941 208.967 86.3651 205.759C86.6686 208.254 86.9961 210.767 87.6396 213.155C89.3146 219.178 93.1139 224.399 97.7747 224.292C105.312 225.344 111.515 212.656 108.431 202.498C107.715 197.527 104.074 195.887 102.496 191.824C102.01 184.607 100.251 177.746 99.6318 170.601C99.656 164.952 100.336 157.753 105.069 156.933C107.145 158.626 108.917 161.067 111.029 162.671C110.883 155.152 107.606 148.825 106.501 141.679H106.502ZM159.569 182.077C151.206 182.79 143.025 188.617 137.6 198.008C135.039 202.641 130.269 205.991 130.511 212.798C135.354 218.768 143.062 218.198 147.529 225.255C149.192 229.335 152.894 230.405 154.374 234.771C155.843 239.618 159.108 242.291 162.167 244.66C164.971 245.534 165.966 240.509 168.296 239.35C170.602 240.135 172.957 242.077 175.385 241.008C179.451 238.584 184.063 239.724 188.02 236.588C189.841 236.107 189.61 232.918 190.448 231.135C192.207 229.353 194.684 231.224 196.407 229.335C200.813 223.776 203.447 214.616 201.76 206.152C200.231 198.757 197.002 191.949 192.292 188.278C186.879 181.614 179.548 181.703 173.115 178.869C168.502 178.567 164.084 181.044 159.569 182.077V182.077ZM116.311 206.188C114.539 207.008 113.665 210.251 114.406 212.728C115.122 217.236 120.183 217.183 120.899 212.71C122.198 208.683 118.957 204.602 116.311 206.188V206.188ZM191.394 232.65C190.605 235.698 191.248 236.731 193.323 235.751C193.943 232.953 193.299 231.92 191.394 232.65ZM191.636 252.449C187.327 255.924 189.027 266.384 193.821 267.061C197.62 268.327 201.14 262.695 200.169 257.26C199.611 251.647 194.561 249.455 191.636 252.449V252.449Z" fill="#55A2A2" stroke="#55A2A2" stroke-width="3.5065"/>
<path d="M308.232 146.97C308.645 147.094 309.482 147.308 309.895 147.433V149.501C302.248 153.617 294.65 157.983 287.125 162.527C286.748 163.062 285.996 164.113 285.607 164.648C284.09 160.264 280.643 158.625 278.228 155.542C277.135 154.384 276.018 153.279 274.974 152.067L275.375 150.855C283.702 149.483 292.198 151.265 300.439 148.77C302.94 148.003 306.63 150.908 308.232 146.97V146.97Z" fill="#522A2A" stroke="#522A2A" stroke-width="3.5065"/>
<path d="M96.855 149.109C99.5251 151.853 102.584 153.778 105.072 156.932C100.339 157.752 99.6588 164.951 99.6345 170.6C98.2264 163.633 97.1824 156.38 96.855 149.109Z" fill="#438383" stroke="#438383" stroke-width="3.5065"/>
<path d="M278.398 159.553C277.694 158.269 277.645 156.933 278.228 155.543C280.643 158.626 284.091 160.265 285.608 164.649C288.351 172.935 291.009 181.293 293.643 189.668L293.109 191.45L292.186 191.13C288.023 180.259 282.937 170.138 278.398 159.553V159.553Z" fill="#8A4747" stroke="#8A4747" stroke-width="3.5065"/>
<path d="M231.596 161.372C233.064 161.496 233.586 163.992 234.581 165.221C239.315 173.133 244.049 181.045 248.746 188.993C249.147 189.082 249.96 189.278 250.373 189.367C251.55 184.306 251.683 178.496 253.358 173.845C256.684 175.164 258.432 181.579 261.199 184.805L261.151 185.41C260.556 190.079 260.58 194.873 261.102 199.559C262.061 208.095 261.539 216.791 261.382 225.399C260.071 220.89 256.333 216.56 253.067 219.767C247.63 225.523 247.872 241.223 254.536 244.965C256.903 246.337 258.809 243.094 260.544 241.294C260.726 250.81 260.18 260.308 260.265 269.824C260.337 273.014 259.706 276.078 259.051 279.072C256.065 270.804 252.776 262.001 246.768 257.777C240.225 252.253 231.595 255.087 226.461 262.821C220.32 270.768 217.953 282.832 216.69 294.291C215.853 296.144 215.744 299.138 214.19 300.029C206.738 303.433 198.994 305.09 191.323 307.015C180.848 308.244 170.251 305.874 159.837 308.316C160.614 304.306 161.33 300.19 160.566 296.038C160.93 285.969 160.481 275.99 158.369 266.35C160.505 268.488 160.735 272.444 161.719 275.652C163.685 277.416 166.076 276.721 168.273 277.024C171.781 276.988 175.24 280.214 178.723 278.04C181.964 276.24 185.435 277.006 188.81 276.721C199.879 273.513 211.034 268.791 220.392 259.186C224.482 255.141 227.359 249.118 231 244.36C233.234 242.062 236.911 245.127 238.489 241.26L238.999 239.834C241.305 234.88 236.693 230.532 237.445 225.347C240.662 210.164 237.361 192.879 230.563 181.046C230.309 183.149 230.029 185.27 229.75 187.39C228.367 188.21 227.311 187.693 226.582 185.786C227.044 185.608 227.954 185.251 228.415 185.073C229.435 177.178 230.018 169.053 231.596 161.372V161.372ZM244.996 204.657C240.759 206.172 240.869 214.173 241.573 219.162C241.961 222.459 244.996 226.557 246.974 223.172C250.834 218.859 250.361 205.726 244.996 204.657ZM205.002 279.839C205.754 279.874 207.247 279.945 208 279.981C210.391 278.021 208.716 270.84 205.815 272.978C203.388 273.192 203.958 277.932 205.002 279.839V279.839Z" fill="#509A9A" stroke="#509A9A" stroke-width="3.5065"/>
<path d="M79.8489 179.067C84.2428 181.437 88.6732 183.825 92.8726 186.908C91.2461 188.868 89.4742 193.127 91.7438 195.533C88.5153 200.184 87.2408 206.599 87.6413 213.157C86.9982 210.769 86.6704 208.257 86.3668 205.762C85.3959 208.97 84.4976 212.302 82.9441 215.028C81.6333 203.124 79.9946 191.132 79.8489 179.067V179.067Z" fill="#3C7676" stroke="#3C7676" stroke-width="3.5065"/>
<path d="M159.57 182.076C164.085 181.042 168.503 178.565 173.115 178.868C179.549 181.701 186.88 181.612 192.293 188.277C197.002 191.948 200.231 198.755 201.76 206.151C203.447 214.615 200.814 223.775 196.408 229.334C194.684 231.223 192.208 229.352 190.448 231.134C189.61 232.917 189.841 236.106 188.02 236.587C184.064 239.724 179.451 238.583 175.385 241.007C172.958 242.076 170.603 240.133 168.297 239.349C165.966 240.508 164.971 245.533 162.167 244.659C159.108 242.289 155.843 239.617 154.375 234.77C152.894 230.404 149.192 229.334 147.529 225.254C143.062 218.197 135.355 218.767 130.512 212.797C130.269 205.99 135.039 202.64 137.6 198.007C143.026 188.616 151.207 182.789 159.57 182.076V182.076Z" fill="#5BADAD" stroke="#5BADAD" stroke-width="3.5065"/>
<path d="M261.101 199.557C260.579 194.871 260.555 190.077 261.149 185.408C262.4 186.816 264.002 188.563 263.82 191.235C264.924 212.067 265.604 232.97 266.684 253.784C264.305 277.431 264.973 301.666 268.748 324.92C270.447 334.49 268.784 345.716 263.65 352.328C262.412 348.086 265.531 344.576 266.053 340.531C267.57 331.015 264.718 321.588 262.897 312.607L261.987 312.821C260.895 326.204 255.251 338.09 247.495 344.968C241.438 349.672 234.313 347.588 228.754 342.384C229.155 341.92 229.943 340.994 230.332 340.53C235.855 345.609 243.477 345.752 248.672 339.693C261.222 326.203 263.977 299.651 259.05 279.071C259.705 276.077 260.336 273.012 260.264 269.822C260.179 260.306 260.725 250.808 260.543 241.292C261.744 236.142 262.133 230.743 261.38 225.397C261.538 216.791 262.06 208.095 261.101 199.558V199.557Z" fill="#5CAEAE" stroke="#5CAEAE" stroke-width="3.5065"/>
<path d="M91.7424 195.533C89.4728 193.127 91.2447 188.868 92.8712 186.908C95.5781 188.048 98.0783 190.08 100.688 191.665C97.6536 192.699 94.3884 192.788 91.7424 195.533V195.533Z" fill="#4F9A9A" stroke="#4F9A9A" stroke-width="3.5065"/>
<path d="M100.69 191.665C101.139 191.701 102.05 191.772 102.499 191.826C104.077 195.889 107.718 197.528 108.434 202.5C111.517 212.657 105.315 225.345 97.7775 224.294C93.1167 224.4 89.3174 219.179 87.6424 213.156C87.2419 206.598 88.5164 200.183 91.7449 195.532C94.3908 192.788 97.656 192.698 100.69 191.665V191.665Z" fill="#284C4C" stroke="#284C4C" stroke-width="3.5065"/>
<path d="M244.995 204.655C250.36 205.724 250.833 218.857 246.973 223.17C244.995 226.555 241.96 222.457 241.572 219.16C240.868 214.171 240.759 206.17 244.995 204.655Z" fill="#284C4C" stroke="#284C4C" stroke-width="3.5065"/>
<path d="M116.312 206.189C118.958 204.603 122.199 208.684 120.9 212.712C120.184 217.184 115.123 217.238 114.406 212.729C113.666 210.252 114.54 207.009 116.312 206.189V206.189Z" fill="#284C4C" stroke="#284C4C" stroke-width="3.5065"/>
<path d="M216.41 217.608C217.891 214.062 221.265 213.688 223.693 215.132C231.048 219.355 236.437 229.031 238.999 239.83L238.489 241.256C234.459 240.792 230.102 240.062 226.375 242.895C223.183 246.227 220.367 250.326 217.054 253.445C213.728 248.295 214.298 240.774 214.25 234.271C214.116 228.568 214.553 222.687 216.41 217.608V217.608Z" fill="#5CAEAE" stroke="#5CAEAE" stroke-width="3.5065"/>
<path d="M253.067 219.768C256.332 216.561 260.07 220.891 261.381 225.4C262.134 230.746 261.745 236.145 260.544 241.295C258.808 243.095 256.903 246.338 254.536 244.966C247.872 241.223 247.629 225.524 253.067 219.768V219.768Z" fill="#284C4C" stroke="#284C4C" stroke-width="3.5065"/>
<path d="M70.3437 227.178C72.7713 231.223 75.3203 235.731 76.9222 240.436C72.3704 249.809 71.3268 261.874 69.3725 272.833C68.3043 277.519 68.3043 282.491 68.5472 287.356L67.0059 287.516C67.7947 267.361 69.4697 247.314 70.3437 227.179V227.178Z" fill="#3C7676" stroke="#3C7676" stroke-width="3.5065"/>
<path d="M93.4316 240.259C103.627 228.462 117.695 223.49 130.234 229.246C143.1 233.736 153.271 248.83 158.369 266.347C160.481 275.988 160.93 285.967 160.566 296.035C158.867 303.876 157.775 312.198 154.461 319.041C151.9 326.08 147.761 331.283 143.986 336.86C134.677 346.786 122.6 351.455 111.239 347.748C92.1218 342.883 77.1925 315.94 77.5688 287.533C77.3383 276.859 79.7294 266.434 83.31 257.257C83.3463 256.312 83.4315 254.406 83.4678 253.461C84.4388 255.314 85.1428 257.631 86.6357 258.718C86.4537 256.009 86.1622 253.318 85.9559 250.627C88.4682 247.224 90.7137 243.339 93.4323 240.257L93.4316 240.259ZM117.744 238.938C105.91 241.825 95.5078 255.778 93.1775 273.241C90.1675 291.15 96.127 311.251 106.905 320.607C114.77 327.806 124.869 329.285 133.487 324.242C142.784 319.235 149.994 306.867 152.118 292.665C154.861 276.467 150.516 258.29 141.51 248.115C134.98 240.132 126.095 237.084 117.744 238.938Z" fill="#326060" stroke="#326060" stroke-width="3.5065"/>
<path d="M191.394 232.651C193.3 231.92 193.943 232.954 193.324 235.751C191.249 236.732 190.605 235.698 191.394 232.651Z" fill="#3A6F6F" stroke="#3A6F6F" stroke-width="3.5065"/>
<path d="M117.741 238.942C126.092 237.089 134.977 240.136 141.507 248.12C150.513 258.295 154.859 276.471 152.115 292.67C149.991 306.872 142.782 319.24 133.484 324.247C124.867 329.29 114.768 327.811 106.903 320.612C96.1243 311.257 90.1647 291.156 93.1748 273.246C95.5051 255.782 105.907 241.829 117.741 238.942ZM127.294 255.907C131.821 266.136 128.508 281.282 120.873 285.898C117.147 288.589 112.886 287.27 109.002 286.183C108.784 303.183 122.135 314.677 132.768 310.257C132.501 306.515 131.202 301.989 133.836 299.369C136.13 294.897 139.796 297.872 142.454 299.708C145.185 297.017 145.719 291.885 146.496 287.555C148.45 273.851 142.138 259.203 132.914 255.764C131.105 255.479 128.629 253.003 127.294 255.907V255.907Z" fill="white" stroke="white" stroke-width="3.5065"/>
<path d="M69.3745 272.834C71.3285 261.875 72.3725 249.81 76.9243 240.437C79.3882 244.464 81.2331 249.169 83.4664 253.463C80.3712 255.958 79.6187 261.375 78.0288 265.617C74.6062 276.487 74.8246 288.622 74.9945 300.294C70.0422 300.116 70.1637 292.311 68.5493 287.357C68.3063 282.492 68.3063 277.521 69.3745 272.834V272.834Z" fill="#4A9191" stroke="#4A9191" stroke-width="3.5065"/>
<path d="M191.637 252.45C194.562 249.456 199.611 251.648 200.169 257.262C201.14 262.697 197.62 268.328 193.821 267.063C189.027 266.385 187.328 255.925 191.637 252.45V252.45Z" fill="#284C4C" stroke="#284C4C" stroke-width="3.5065"/>
<path d="M78.0281 265.617C79.6183 261.376 80.3708 255.959 83.4657 253.464C83.4294 254.408 83.3442 256.315 83.3079 257.26C79.7273 266.437 77.3362 276.862 77.5667 287.536C77.1904 315.941 92.1197 342.883 111.237 347.751C122.597 351.458 134.674 346.789 143.984 336.863L144.894 337.897C143.923 340.802 141.775 342.263 140.173 344.312C129.358 353.329 115.825 356.109 104.028 349.641C88.9414 342.994 77.9689 322.644 74.9952 300.297C74.8256 288.625 74.6071 276.49 78.0298 265.619L78.0281 265.617Z" fill="#5BADAD" stroke="#5BADAD" stroke-width="3.5065"/>
<path d="M127.295 255.906C128.63 253.001 131.106 255.478 132.915 255.763C142.14 259.202 148.451 273.85 146.497 287.554C145.72 291.884 145.186 297.016 142.455 299.707C139.797 297.872 136.131 294.896 133.837 299.369C131.203 301.989 132.502 306.515 132.769 310.257C122.136 314.676 108.785 303.182 109.003 286.182C112.887 287.269 117.148 288.588 120.874 285.897C128.509 281.281 131.822 266.135 127.295 255.906V255.906Z" fill="#E6E6E6" stroke="#E6E6E6" stroke-width="3.5065"/>
<path d="M24.5487 258.188C32.2197 253.857 41.2866 252.949 48.8848 257.867C48.9696 259.078 49.1275 261.52 49.2126 262.732C30.4477 252.717 8.72053 273.62 5.59138 301.9C4.52317 307.87 6.11337 314.357 4.4626 320.112C-1.48487 296.037 8.26155 267.006 24.5505 258.189L24.5487 258.188Z" fill="#5CAEAE" stroke="#5CAEAE" stroke-width="3.5065"/>
<path d="M226.459 262.822C231.593 255.089 240.223 252.255 246.765 257.779C252.773 262.003 256.063 270.806 259.048 279.074C263.976 299.656 261.221 326.208 248.671 339.696C243.476 345.755 235.853 345.612 230.33 340.534C220.062 330.501 216.384 311.541 216.687 294.291C217.95 282.832 220.317 270.768 226.459 262.821V262.822ZM232.989 263.765C229.615 264.905 226.75 268.291 224.626 272.229C216.081 288.784 218.12 318.241 231.86 327.399C237.177 330.001 242.99 326.686 246.401 320.413C253.368 307.458 253.866 287.928 247.87 274.064C244.896 266.704 238.864 261.661 232.989 263.763V263.765Z" fill="#326060" stroke="#326060" stroke-width="3.5065"/>
<path d="M274.272 257.867C291.277 266.742 301.108 297.428 294.287 322.144C293.316 319.114 293.935 315.818 294.105 312.663C294.591 295.734 288.934 278.306 279.054 269.218C277.1 267.258 274.539 266.385 273.228 263.266L273.107 260.878C273.398 260.13 273.98 258.633 274.272 257.867V257.867Z" fill="#5CAEAE" stroke="#5CAEAE" stroke-width="3.5065"/>
<path d="M5.59 301.897C8.72158 273.617 30.4481 252.714 49.2112 262.729L49.818 263.192C50.3885 269.001 52.0393 274.686 52.0756 280.531C44.6958 274.687 35.2893 273.029 27.8001 279.32C24.96 282.884 21.7311 286.608 20.8207 292.221C15.4316 314.158 25.0084 340.906 40.2897 347.126C43.4092 348.641 46.917 348.712 49.6235 351.742C43.7245 356.696 36.1751 357.052 29.6205 354.593C18.0291 350.815 8.598 337.432 4.28918 321.447L4.45914 320.111C6.11026 314.356 4.52007 307.869 5.58827 301.899L5.59 301.897Z" fill="#458989" stroke="#458989" stroke-width="3.5065"/>
<path d="M232.991 263.762C238.865 261.66 244.898 266.703 247.871 274.062C253.867 287.926 253.37 307.457 246.403 320.412C242.992 326.685 237.178 329.999 231.862 327.398C218.122 318.238 216.083 288.782 224.628 272.228C226.752 268.29 229.616 264.904 232.991 263.764V263.762ZM238.768 275.312C238.647 279.553 240.103 283.776 239.181 288.017C238.477 294.789 233.852 301.008 229.046 299.012C227.662 301.863 229.677 305.73 230.454 308.581C232.019 314.462 236.656 317.527 240.747 315.852C241.038 313.161 240.977 310.399 241.511 307.78C243.186 305.231 245.201 306.479 246.67 308.564C249.377 300.153 249.413 290.049 246.245 281.94C244.4 278.679 241.827 275.169 238.768 275.312Z" fill="white" stroke="white" stroke-width="3.5065"/>
<path d="M272.863 262.624L273.227 263.265C274.538 266.384 277.099 267.257 279.053 269.217C288.933 278.305 294.59 295.733 294.104 312.662C293.934 315.817 293.315 319.113 294.286 322.143L294.42 323.158C290.123 337.058 282.003 350.352 271.467 353.238C271.989 348.534 274.101 344.489 274.89 339.838C276.783 336.078 275.23 331.159 276.285 327.043C278.701 317.616 281.104 307.352 279.429 297.195C277.997 289.96 275.836 282.191 271.042 278.466C270.897 273.084 272.22 267.863 272.863 262.624V262.624Z" fill="#458989" stroke="#458989" stroke-width="3.5065"/>
<path d="M205.001 279.837C203.957 277.93 203.387 273.19 205.814 272.976C208.715 270.837 210.39 278.019 207.999 279.979C207.247 279.944 205.754 279.872 205.001 279.837V279.837Z" fill="#305C5C" stroke="#305C5C" stroke-width="3.5065"/>
<path d="M27.8025 279.318C35.2914 273.028 44.6982 274.685 52.078 280.53C55.7195 298.011 57.5644 316.294 60.7566 333.992C61.7154 338.607 61.4485 343.989 63.3904 348.034C64.5071 330.802 64.956 313.231 66.8498 296.269C68.4642 302.132 68.4884 308.547 69.6051 314.588C70.8433 322.269 73.3798 329.664 77.2154 335.26C74.1323 335.83 71.1465 339.18 72.6758 344.205C74.375 350.122 79.8856 348.162 81.0507 342.69C86.4762 349.551 92.7152 354.576 99.1237 359.138C97.8492 362.417 96.0527 366.177 97.376 370.062C98.529 375.96 103.384 378.116 106.928 375.586C109.574 373.215 110.327 368.387 110.193 364.127C113.725 368.297 118.435 368.493 122.513 370.81C122.683 372.361 122.404 374.285 123.266 375.497C119.515 378.74 116.056 384.264 111.346 383.747C100.459 382.161 89.8989 377.368 79.2785 373.643C70.4421 370.311 61.8244 364.84 54.8693 356.037C54.0926 354.362 53.6312 352.509 53.4733 350.513C52.4172 350.941 51.41 351.493 50.4145 352.152L49.6256 351.742C46.9187 348.713 43.4112 348.642 40.2918 347.127C25.0105 340.908 15.4337 314.16 20.8228 292.222C21.7335 286.609 24.962 282.885 27.8025 279.321V279.318ZM89.7175 357.638C87.6542 359.207 86.1128 363.091 88.2852 365.782C90.288 369.792 94.4999 365.55 93.8079 361.363C92.8491 359.438 91.5746 356.943 89.7175 357.638Z" fill="#3C7676" stroke="#3C7676" stroke-width="3.5065"/>
<path d="M238.768 275.314C241.826 275.171 244.4 278.681 246.244 281.943C249.412 290.051 249.376 300.155 246.669 308.566C245.201 306.481 243.186 305.233 241.511 307.782C240.977 310.401 241.037 313.163 240.746 315.854C236.656 317.529 232.019 314.464 230.453 308.584C229.676 305.733 227.661 301.865 229.045 299.014C233.851 301.01 238.476 294.791 239.18 288.019C240.103 283.778 238.647 279.555 238.768 275.314Z" fill="#E6E6E6" stroke="#E6E6E6" stroke-width="3.5065"/>
<path d="M271.042 278.464C275.837 282.189 277.997 289.958 279.429 297.193C281.104 307.351 278.701 317.615 276.286 327.042C275.23 331.158 276.783 336.076 274.89 339.836C275.715 326.275 272.086 313.409 271.528 300.027C270.957 292.881 270.545 285.61 271.042 278.464V278.464Z" fill="#3C7676" stroke="#3C7676" stroke-width="3.5065"/>
<path d="M67.0069 287.52L68.5483 287.36C70.1627 292.314 70.0412 300.119 74.9935 300.297C77.9673 322.643 88.9397 342.994 104.027 349.64C115.825 356.109 129.358 353.329 140.171 344.312C145.524 343.688 150.585 346.807 155.902 346.522C156.363 347.021 157.285 348.001 157.747 348.482C148.984 353.543 139.273 356.839 131.894 365.713L133.156 366.337C130 369.723 126.48 372.253 123.264 375.497C122.402 374.285 122.681 372.36 122.511 370.81C118.433 368.494 113.724 368.298 110.192 364.127C108.468 357.498 103.091 356.09 99.1219 359.138C92.7131 354.576 86.4745 349.551 81.049 342.69C80.4059 339.554 79.1071 336.97 77.2134 335.259C73.3777 329.664 70.8412 322.269 69.603 314.588C68.4863 308.547 68.4621 302.132 66.8477 296.269C66.4226 293.383 66.9325 290.407 67.0052 287.52H67.0069Z" fill="#458989" stroke="#458989" stroke-width="3.5065"/>
<path d="M214.188 300.027C215.741 299.136 215.851 296.142 216.688 294.289C216.385 311.539 220.062 330.499 230.331 340.532C229.943 340.995 229.154 341.922 228.753 342.385C227.467 341.691 226.277 339.783 224.821 340.318C219.189 342.492 213.448 343.971 207.755 345.735C205.425 346.698 202.414 345.147 200.703 348.337C196.637 348.177 192.813 345.932 188.82 345.272C183.14 345.148 177.472 345.397 171.803 345.219C166.997 345.148 162.53 348.89 157.748 348.48C157.286 347.999 156.364 347.019 155.903 346.52C150.586 346.805 145.525 343.687 140.172 344.31C141.774 342.261 143.922 340.8 144.893 337.895L143.983 336.861C147.758 331.283 151.897 326.08 154.458 319.042C157.771 312.199 158.864 303.877 160.563 296.036C161.328 300.188 160.612 304.304 159.835 308.314C170.249 305.873 180.845 308.243 191.32 307.013C198.991 305.088 206.735 303.431 214.188 300.027V300.027Z" fill="#4A9191" stroke="#4A9191" stroke-width="3.5065"/>
<path d="M261.987 312.823L262.898 312.609C264.718 321.591 267.57 331.018 266.053 340.534C265.531 344.579 262.412 348.089 263.65 352.33L263.796 353.15C259.887 358.692 255.469 363.503 250.529 366.889C249.643 363.824 249.971 358.816 247.374 357.676C245.711 358.71 245.237 361.454 244.691 363.717C239.156 367.245 232.796 367.013 227.541 371.629C223.353 366.96 218.595 363.592 214.262 359.244C214.505 358.781 214.99 357.854 215.233 357.373C210.73 353.399 205.669 350.797 200.704 348.338C202.416 345.148 205.426 346.699 207.756 345.736C213.449 343.972 219.19 342.493 224.822 340.319C226.278 339.784 227.468 341.691 228.754 342.386C234.314 347.59 241.438 349.675 247.495 344.971C255.25 338.092 260.895 326.206 261.987 312.823V312.823ZM252.435 347.162C250.808 350.655 251.148 357.694 254.34 358.923C258.71 357.231 257.399 342.28 252.435 347.162Z" fill="#458989" stroke="#458989" stroke-width="3.5065"/>
<path d="M72.6767 344.204C71.1474 339.179 74.1333 335.829 77.2164 335.258C79.1098 336.969 80.4085 339.553 81.052 342.689C79.8866 348.16 74.3763 350.121 72.6767 344.204Z" fill="#284C4C" stroke="#284C4C" stroke-width="3.5065"/>
<path d="M157.749 348.478C162.531 348.888 166.998 345.146 171.804 345.217C177.473 345.395 183.141 345.146 188.822 345.27C192.815 345.929 196.638 348.175 200.705 348.335C205.669 350.794 210.73 353.396 215.233 357.37C214.991 357.851 214.505 358.778 214.262 359.241C199.382 348.46 182.061 344.629 165.76 349.529C154.314 352.273 143.463 358.706 133.158 366.333L131.896 365.71C139.275 356.836 148.986 353.539 157.749 348.478H157.749Z" fill="#5BADAD" stroke="#5BADAD" stroke-width="3.5065"/>
<path d="M252.434 347.162C257.398 342.279 258.709 357.23 254.339 358.923C251.147 357.694 250.807 350.655 252.434 347.162Z" fill="#284C4C" stroke="#284C4C" stroke-width="3.5065"/>
<path d="M165.759 349.53C182.06 344.63 199.38 348.461 214.261 359.242C218.594 363.59 223.352 366.958 227.539 371.627C229.081 374.514 231.314 376.118 233.633 377.311C228.571 380.537 222.345 383.21 216.664 385.009C217.975 383.887 219.359 383.049 220.743 382.176C220.973 379.574 219.14 378.274 218.06 376.795C204.806 361.398 187.23 355.25 170.59 357.567C156.971 357.976 143.644 364.891 132.417 376.082C129.541 379.325 126.348 382.283 124.382 386.863C119.964 388.074 115.934 384.493 111.54 384.903L111.346 383.745C116.055 384.261 119.515 378.737 123.265 375.494C126.482 372.251 130.002 369.721 133.157 366.334C143.462 358.707 154.313 352.274 165.759 349.53H165.759Z" fill="#326060" stroke="#326060" stroke-width="3.5065"/>
<path d="M89.7175 357.641C91.5745 356.946 92.849 359.441 93.8079 361.365C94.4998 365.553 90.2879 369.794 88.2851 365.785C86.1127 363.094 87.6541 359.209 89.7175 357.641Z" fill="#284C4C" stroke="#284C4C" stroke-width="3.5065"/>
<path d="M99.1223 359.135C103.091 356.088 108.468 357.495 110.192 364.124C110.326 368.383 109.573 373.212 106.927 375.583C103.383 378.113 98.5276 375.957 97.3746 370.058C96.0513 366.174 97.8478 362.414 99.1223 359.135Z" fill="#284C4C" stroke="#284C4C" stroke-width="3.5065"/>
<path d="M132.418 376.083C143.646 364.892 156.972 357.978 170.591 357.568C187.232 355.251 204.807 361.399 218.061 376.796C219.142 378.275 220.974 379.576 220.744 382.178C219.36 383.051 217.976 383.888 216.665 385.011C215.791 385.1 214.044 385.296 213.17 385.385C212.271 382.035 213.728 378.31 213.424 374.764C208.897 371.004 203.605 368.866 198.653 366.335C192.353 362.789 185.289 363.662 179.087 359.974C170.833 358.691 162.64 360.865 154.702 363.966C152.894 364.09 152.59 366.853 151.498 368.349C148.038 369.419 144.737 371.343 141.375 372.911C140.671 378.489 141.691 384.53 142.237 390.214C139.409 390.873 136.52 390.108 133.716 389.555C130.767 387.595 127.125 389.52 124.382 386.864C126.349 382.285 129.541 379.326 132.417 376.083H132.418Z" fill="#DE4256" stroke="#DE4256" stroke-width="3.5065"/>
<path d="M247.373 357.676C249.97 358.817 249.642 363.824 250.529 366.889L250.613 367.691C249.521 368.404 248.416 369.028 247.288 369.527C246.487 367.531 245.625 365.589 244.69 363.718C245.236 361.454 245.71 358.71 247.373 357.676V357.676Z" fill="#284C4C" stroke="#284C4C" stroke-width="3.5065"/>
<path d="M155.527 367.423C163.501 365.125 172.544 360.474 180.191 365.41C180.166 373.518 181.04 381.608 180.457 389.716C179.911 389.752 178.819 389.859 178.285 389.895C178.078 393.352 178.491 396.844 178.115 400.301C176.306 401.246 174.546 400.105 172.847 399.321C173.454 398.929 174.668 398.163 175.275 397.771C175.627 387.293 176.051 376.618 175.238 366.194C172.447 364.91 169.048 364.839 166.499 367.156C165.625 377.064 163.817 386.794 163.367 396.773C161.45 396.042 159.362 395.882 157.651 394.332C157.444 392.318 157.214 390.304 156.959 388.326C155.83 388.469 154.701 388.718 153.572 388.647C156.364 385.083 154.034 379.523 155.089 374.979C155.891 372.555 154.714 369.847 155.527 367.423V367.423Z" fill="#FFF6DF" stroke="#FFF6DF" stroke-width="3.5065"/>
<path d="M227.542 371.626C232.798 367.011 239.158 367.243 244.693 363.714C245.627 365.585 246.489 367.528 247.29 369.523C242.872 372.588 238.357 375.475 233.635 377.311C231.317 376.117 229.084 374.513 227.542 371.626V371.626Z" fill="#3C7676" stroke="#3C7676" stroke-width="3.5065"/>
<path d="M166.499 367.154C169.049 364.837 172.447 364.909 175.239 366.192C176.052 376.616 175.627 387.29 175.275 397.769C174.668 398.16 173.454 398.927 172.847 399.319C169.68 398.446 166.584 397.145 163.368 396.771C163.817 386.792 165.625 377.062 166.499 367.154Z" fill="white" stroke="white" stroke-width="3.5065"/>
<path d="M180.19 365.411C182.751 365.215 185.251 365.732 187.739 366.551C188.031 373.787 187.096 381.021 187.897 388.221C185.579 390.003 182.982 389.896 180.457 389.717C181.039 381.61 180.165 373.519 180.19 365.411V365.411Z" fill="white" stroke="white" stroke-width="3.5065"/>
<path d="M187.742 366.549C192.415 367.209 196.676 369.704 201.203 371.129L200.9 371.896C199.018 376.422 199.771 382.035 199.031 387.061C200.548 387.56 202.065 388.005 203.607 388.397C201.119 389.431 198.509 390.696 195.911 389.68C195.863 388.201 195.754 385.261 195.705 383.799C195.487 384.744 195.05 386.65 194.831 387.595C192.61 388.736 190.195 388.201 187.901 388.219C187.099 381.02 188.034 373.785 187.742 366.549V366.549Z" fill="#FFF6DF" stroke="#FFF6DF" stroke-width="3.5065"/>
<path d="M152.128 371.982C152.844 371.732 154.3 371.233 155.016 370.984C155.041 371.982 155.077 373.978 155.089 374.976C154.033 379.52 156.364 385.08 153.572 388.644C151.775 388.376 150.052 387.717 148.401 386.719C149.445 381.676 149.931 376.312 152.128 371.982V371.982Z" fill="white" stroke="white" stroke-width="3.5065"/>
<path d="M144.772 374.696C147.418 374.749 149.518 372.023 152.128 371.987C149.931 376.317 149.445 381.681 148.401 386.724C147.539 386.546 145.804 386.19 144.942 386.011C144.165 382.323 144.311 378.42 144.772 374.696Z" fill="#FFF6DF" stroke="#FFF6DF" stroke-width="3.5065"/>
<path d="M199.03 387.06C199.771 382.035 199.018 376.422 200.899 371.895C201.895 372.18 203.897 372.715 204.893 372.982L204.832 374.443C204.529 379.076 205.318 383.621 205.876 388.147C205.306 388.2 204.177 388.325 203.607 388.396C202.065 388.004 200.547 387.559 199.03 387.06Z" fill="white" stroke="white" stroke-width="3.5065"/>
<path d="M143.401 375.778C143.741 375.511 144.421 374.958 144.773 374.691C144.311 378.416 144.166 382.318 144.943 386.007C145.804 386.185 147.54 386.542 148.402 386.72C150.053 387.718 151.776 388.377 153.573 388.645C154.701 388.716 155.83 388.466 156.959 388.324C157.214 390.302 157.445 392.316 157.651 394.329C159.362 395.88 161.45 396.04 163.368 396.771C166.584 397.145 169.679 398.446 172.847 399.319C174.547 400.103 176.307 401.243 178.115 400.299C178.491 396.842 178.079 393.349 178.285 389.892C178.819 389.857 179.911 389.75 180.458 389.714C182.982 389.892 185.58 389.999 187.898 388.217C190.192 388.199 192.607 388.734 194.829 387.594C195.047 386.649 195.484 384.743 195.703 383.798C195.751 385.259 195.86 388.199 195.909 389.679C198.506 390.695 201.116 389.429 203.604 388.396C204.175 388.324 205.303 388.199 205.874 388.146C206.748 387.968 208.495 387.611 209.357 387.451C209.746 384.35 210.013 381.232 210.535 378.184C211.372 381.517 210.45 385.045 210.268 388.449C205.522 390.231 200.533 390.231 195.787 392.048C195.484 391.372 194.865 389.999 194.549 389.304C189.5 390.248 184.39 390.498 179.341 391.407C178.358 394.561 179.304 398.25 179.013 401.636C172.459 401.921 165.564 398.428 158.877 397.146C156.376 397.342 156.728 393.35 156.364 390.944C152.407 389.144 148.062 389.43 144.263 387.202C143.607 383.53 143.959 379.538 143.401 375.778V375.778Z" fill="#A29C8F" stroke="#A29C8F" stroke-width="3.5065"/>
<path d="M204.832 374.442L205.608 373.693C207.223 374.976 208.922 375.903 210.719 376.491L210.536 378.183C210.014 381.231 209.748 384.349 209.359 387.45C208.497 387.61 206.75 387.967 205.876 388.145C205.317 383.619 204.528 379.075 204.832 374.442V374.442Z" fill="#FFF6DF" stroke="#FFF6DF" stroke-width="3.5065"/>
<path d="M149.628 393.438C150.696 393.438 152.808 393.42 153.864 393.42C154.981 395.398 153.901 399.158 156.122 399.942C164.606 401.564 172.969 405.199 181.466 406.09L181.393 407.017C180.592 407.213 178.965 407.605 178.164 407.819C177.873 409.904 177.643 412.024 177.473 414.145C174.426 414.216 171.367 413.931 168.345 414.448C167.071 415.552 166.245 417.905 164.655 418.065C162.968 416.568 161.487 413.948 159.314 414.394C159.375 415.784 159.132 416.942 158.586 417.869C155.709 414.536 153.063 410.687 151.959 405.412C150.83 408.228 150.939 411.632 150.575 414.785C149.191 407.836 149.774 400.566 149.628 393.438V393.438Z" fill="#DF4757" stroke="#DF4757" stroke-width="3.5065"/>
<path d="M181.768 394.759C184.426 393.262 187.448 394.136 190.24 393.298C193.444 398.448 198.469 393.191 202.487 394.136C202.681 401.78 202.827 409.568 201.443 417.016L200.679 417.551C200.606 414.7 200.654 411.866 200.545 409.033C199.307 411.92 198.664 415.252 197.62 418.282C194.391 417.623 190.543 416.001 188.116 420.224C185.518 415.039 181.258 418.353 177.932 419.583C177.823 418.228 177.58 415.52 177.471 414.148C177.641 412.027 177.872 409.906 178.163 407.822C178.964 407.608 180.591 407.216 181.392 407.02L181.464 406.093C181.537 402.368 180.663 398.199 181.768 394.759V394.759Z" fill="#DF4656" stroke="#DF4656" stroke-width="3.5065"/>
<path d="M150.573 414.787C150.938 411.633 150.828 408.229 151.957 405.414C153.061 410.688 155.707 414.538 158.584 417.87C159.13 416.944 159.373 415.785 159.312 414.395C161.485 413.949 162.966 416.569 164.653 418.066C166.243 417.906 167.069 415.554 168.343 414.449C171.365 413.932 174.424 414.217 177.471 414.146C177.58 415.518 177.823 418.227 177.932 419.581C181.257 418.351 185.518 415.037 188.115 420.223C190.543 415.999 194.391 417.621 197.619 418.28C191.744 435.191 175.626 441.018 164.483 432.126C159.154 428.687 155.622 421.649 152.891 414.378C152.661 415.786 152.187 418.583 151.957 419.991C151.144 418.476 150.585 416.73 150.573 414.787V414.787Z" fill="#E15261" stroke="#E15261" stroke-width="3.5065"/>
<path d="M197.621 418.278C198.665 415.249 199.308 411.917 200.547 409.03C200.656 411.863 200.607 414.697 200.68 417.547C199.418 427.206 193.944 434.975 188.251 439.733C180.568 445.222 170.967 445.667 163.369 439.163C158.32 434.85 153.889 428.097 151.96 419.989C152.19 418.581 152.664 415.783 152.894 414.375C155.625 421.646 159.157 428.685 164.486 432.124C175.628 441.017 191.747 435.189 197.621 418.278V418.278Z" fill="#E87582" stroke="#E87582" stroke-width="3.5065"/>
</svg>
